<svg width="217" height="52" viewBox="0 0 217 52" fill="none" xmlns="http://www.w3.org/2000/svg">
<path d="M77.376 41V15.8H86.412L91.416 37.76H92.064V15.8H96.744V41H87.708L82.704 19.04H82.056V41H77.376ZM109.773 41.504C107.997 41.504 106.425 41.132 105.057 40.388C103.713 39.62 102.657 38.552 101.889 37.184C101.145 35.792 100.773 34.16 100.773 32.288V31.856C100.773 29.984 101.145 28.364 101.889 26.996C102.633 25.604 103.677 24.536 105.021 23.792C106.365 23.024 107.925 22.64 109.701 22.64C111.453 22.64 112.977 23.036 114.273 23.828C115.569 24.596 116.577 25.676 117.297 27.068C118.017 28.436 118.377 30.032 118.377 31.856V33.404H105.381C105.429 34.628 105.885 35.624 106.749 36.392C107.613 37.16 108.669 37.544 109.917 37.544C111.189 37.544 112.125 37.268 112.725 36.716C113.325 36.164 113.781 35.552 114.093 34.88L117.801 36.824C117.465 37.448 116.973 38.132 116.325 38.876C115.701 39.596 114.861 40.22 113.805 40.748C112.749 41.252 111.405 41.504 109.773 41.504ZM105.417 30.02H113.769C113.673 28.988 113.253 28.16 112.509 27.536C111.789 26.912 110.841 26.6 109.665 26.6C108.441 26.6 107.469 26.912 106.749 27.536C106.029 28.16 105.585 28.988 105.417 30.02ZM133.143 41.504C131.535 41.504 130.299 41.228 129.435 40.676C128.571 40.124 127.935 39.512 127.527 38.84H126.879V41H122.415V15.8H126.951V25.196H127.599C127.863 24.764 128.211 24.356 128.643 23.972C129.099 23.588 129.687 23.276 130.407 23.036C131.151 22.772 132.063 22.64 133.143 22.64C134.583 22.64 135.915 23 137.139 23.72C138.363 24.416 139.347 25.448 140.091 26.816C140.835 28.184 141.207 29.84 141.207 31.784V32.36C141.207 34.304 140.835 35.96 140.091 37.328C139.347 38.696 138.363 39.74 137.139 40.46C135.915 41.156 134.583 41.504 133.143 41.504ZM131.775 37.544C133.167 37.544 134.331 37.1 135.267 36.212C136.203 35.3 136.671 33.98 136.671 32.252V31.892C136.671 30.164 136.203 28.856 135.267 27.968C134.355 27.056 133.191 26.6 131.775 26.6C130.383 26.6 129.219 27.056 128.283 27.968C127.347 28.856 126.879 30.164 126.879 31.892V32.252C126.879 33.98 127.347 35.3 128.283 36.212C129.219 37.1 130.383 37.544 131.775 37.544ZM152.176 41.288C150.784 41.288 149.56 40.976 148.504 40.352C147.472 39.704 146.668 38.816 146.092 37.688C145.516 36.56 145.228 35.264 145.228 33.8V23.144H149.764V33.44C149.764 34.784 150.088 35.792 150.736 36.464C151.408 37.136 152.356 37.472 153.58 37.472C154.972 37.472 156.052 37.016 156.82 36.104C157.588 35.168 157.972 33.872 157.972 32.216V23.144H162.508V41H158.044V38.66H157.396C157.108 39.26 156.568 39.848 155.776 40.424C154.984 41 153.784 41.288 152.176 41.288ZM167.555 41V15.8H172.091V41H167.555ZM182.662 41.504C181.39 41.504 180.25 41.288 179.242 40.856C178.234 40.4 177.43 39.752 176.83 38.912C176.254 38.048 175.966 37.004 175.966 35.78C175.966 34.556 176.254 33.536 176.83 32.72C177.43 31.88 178.246 31.256 179.278 30.848C180.334 30.416 181.534 30.2 182.878 30.2H187.774V29.192C187.774 28.352 187.51 27.668 186.982 27.14C186.454 26.588 185.614 26.312 184.462 26.312C183.334 26.312 182.494 26.576 181.942 27.104C181.39 27.608 181.03 28.268 180.862 29.084L176.686 27.68C176.974 26.768 177.43 25.94 178.054 25.196C178.702 24.428 179.554 23.816 180.61 23.36C181.69 22.88 182.998 22.64 184.534 22.64C186.886 22.64 188.746 23.228 190.114 24.404C191.482 25.58 192.166 27.284 192.166 29.516V36.176C192.166 36.896 192.502 37.256 193.174 37.256H194.614V41H191.59C190.702 41 189.97 40.784 189.394 40.352C188.818 39.92 188.53 39.344 188.53 38.624V38.588H187.846C187.75 38.876 187.534 39.26 187.198 39.74C186.862 40.196 186.334 40.604 185.614 40.964C184.894 41.324 183.91 41.504 182.662 41.504ZM183.454 37.832C184.726 37.832 185.758 37.484 186.55 36.788C187.366 36.068 187.774 35.12 187.774 33.944V33.584H183.202C182.362 33.584 181.702 33.764 181.222 34.124C180.742 34.484 180.502 34.988 180.502 35.636C180.502 36.284 180.754 36.812 181.258 37.22C181.762 37.628 182.494 37.832 183.454 37.832ZM205.715 41.504C203.939 41.504 202.367 41.132 200.999 40.388C199.655 39.62 198.599 38.552 197.831 37.184C197.087 35.792 196.715 34.16 196.715 32.288V31.856C196.715 29.984 197.087 28.364 197.831 26.996C198.575 25.604 199.619 24.536 200.963 23.792C202.307 23.024 203.867 22.64 205.643 22.64C207.395 22.64 208.919 23.036 210.215 23.828C211.511 24.596 212.519 25.676 213.239 27.068C213.959 28.436 214.319 30.032 214.319 31.856V33.404H201.323C201.371 34.628 201.827 35.624 202.691 36.392C203.555 37.16 204.611 37.544 205.859 37.544C207.131 37.544 208.067 37.268 208.667 36.716C209.267 36.164 209.723 35.552 210.035 34.88L213.743 36.824C213.407 37.448 212.915 38.132 212.267 38.876C211.643 39.596 210.803 40.22 209.747 40.748C208.691 41.252 207.347 41.504 205.715 41.504ZM201.359 30.02H209.711C209.615 28.988 209.195 28.16 208.451 27.536C207.731 26.912 206.783 26.6 205.607 26.6C204.383 26.6 203.411 26.912 202.691 27.536C201.971 28.16 201.527 28.988 201.359 30.02Z" fill="white"/>
<path d="M30.5166 19.8463C11.8086 18.2542 6.40279 30.7234 6.02187 37.2505C-6.98329 25.3462 8.51664 13.3463 16.0166 12.3463C22.0166 11.5463 28.1833 17.013 30.5166 19.8463Z" fill="#5C3DD5"/>
<path d="M6.01661 37.3463C6.34995 30.8463 11.7166 18.2463 30.5166 19.8463C28.1833 17.013 22.0166 11.5463 16.0166 12.3463C8.51661 13.3463 -6.9834 25.3463 6.022 37.2506" stroke="#0A1923" stroke-width="0.5"/>
<path d="M31.5166 32.3463C25.5166 34.7463 20.3499 28.1796 18.5166 24.8463C8.51659 29.2463 13.0166 40.013 16.5166 44.8464C32.0166 64.8464 70.0166 32.3463 55.5166 11.3463C45.0012 -3.88281 26.1833 1.17967 22.5166 4.84634C53.0166 12.8463 39.0166 29.3463 31.5166 32.3463Z" fill="#5C3DD5" stroke="#0A1923" stroke-width="0.5"/>
</svg>
